<!--?xml version="1.0" standalone="no"?-->
              <svg id="sw-js-blob-svg" viewBox="0 0 100 100" xmlns="http://www.w3.org/2000/svg" version="1.1">
                    <defs> 
                        <linearGradient id="sw-gradient" x1="0" x2="1" y1="1" y2="0">
                            <stop id="stop1" stop-color="rgba(177, 147, 100, 0.5)" offset="0%"></stop>
                            <stop id="stop2" stop-color="rgba(177, 147, 100, 0.5)" offset="100%"></stop>
                        </linearGradient>
                    </defs>
                <path fill="url(#sw-gradient)" d="M14.5,-25.6C17.9,-23.2,19.1,-17.4,22.3,-12.6C25.5,-7.8,30.9,-3.9,33.5,1.5C36.2,7,36.2,13.9,33.4,19.5C30.6,25.1,25,29.4,19,33.9C13,38.4,6.5,43.1,1.5,40.5C-3.5,38,-7.1,28.2,-13.2,23.7C-19.3,19.3,-27.9,20.2,-34,17.1C-40.1,14.1,-43.6,7,-42.3,0.7C-41,-5.6,-35,-11.2,-28.6,-13.7C-22.3,-16.2,-15.5,-15.7,-10.7,-17.2C-5.8,-18.8,-2.9,-22.4,1.3,-24.7C5.6,-27,11.2,-28,14.5,-25.6Z" width="100%" height="100%" transform="translate(50 50)" stroke-width="0" style="transition: all 0.3s ease 0s;" stroke="url(#sw-gradient)"></path>
              </svg>