<!--?xml version="1.0" standalone="no"?-->
              <svg id="sw-js-blob-svg" viewBox="0 0 100 100" xmlns="http://www.w3.org/2000/svg" version="1.1">
                    <defs> 
                        <linearGradient id="sw-gradient" x1="0" x2="1" y1="1" y2="0">
                            <stop id="stop1" stop-color="rgba(177, 147, 100, 0.5)" offset="0%"></stop>
                            <stop id="stop2" stop-color="rgba(177, 147, 100, 0.5)" offset="100%"></stop>
                        </linearGradient>
                    </defs>
                <path fill="url(#sw-gradient)" d="M12.8,-23C18,-19.2,24.6,-18.6,28.1,-15.3C31.7,-12,32.2,-6,30.6,-0.9C29,4.1,25.3,8.3,22.7,13.4C20.2,18.4,18.9,24.4,15.3,27.7C11.7,31,5.9,31.6,1.5,29C-2.8,26.4,-5.7,20.6,-11.8,18.7C-17.8,16.9,-27.1,18.9,-32.5,16.5C-37.9,14,-39.4,7,-39.4,0C-39.4,-7,-37.8,-13.9,-34.1,-19.4C-30.4,-24.8,-24.6,-28.7,-18.6,-32.1C-12.6,-35.4,-6.3,-38.2,-1.2,-36.1C3.8,-34,7.6,-26.8,12.8,-23Z" width="100%" height="100%" transform="translate(50 50)" stroke-width="0" style="transition: all 0.3s ease 0s;" stroke="url(#sw-gradient)"></path>
              </svg>