<!--?xml version="1.0" standalone="no"?-->
              <svg id="sw-js-blob-svg" viewBox="0 0 100 100" xmlns="http://www.w3.org/2000/svg" version="1.1">
                    <defs> 
                        <linearGradient id="sw-gradient" x1="0" x2="1" y1="1" y2="0">
                            <stop id="stop1" stop-color="rgba(177, 147, 100, 0.5)" offset="0%"></stop>
                            <stop id="stop2" stop-color="rgba(177, 147, 100, 0.5)" offset="100%"></stop>
                        </linearGradient>
                    </defs>
                <path fill="url(#sw-gradient)" d="M17,-27.9C22.7,-26.2,28.2,-22.9,32.5,-17.9C36.8,-13,39.8,-6.5,38.4,-0.8C37,4.9,31.2,9.8,28.2,16.9C25.2,24,24.9,33.4,20.7,36.5C16.4,39.6,8.2,36.5,1.7,33.5C-4.8,30.6,-9.6,27.7,-13.7,24.6C-17.8,21.4,-21.2,17.8,-23.7,13.6C-26.1,9.5,-27.6,4.7,-26.7,0.5C-25.9,-3.7,-22.6,-7.5,-20.1,-11.4C-17.5,-15.3,-15.5,-19.4,-12.3,-22.4C-9.1,-25.4,-4.5,-27.3,0.6,-28.4C5.7,-29.4,11.4,-29.5,17,-27.9Z" width="100%" height="100%" transform="translate(50 50)" stroke-width="0" style="transition: all 0.3s ease 0s;" stroke="url(#sw-gradient)"></path>
              </svg>