<!--?xml version="1.0" standalone="no"?-->
              <svg id="sw-js-blob-svg" viewBox="0 0 100 100" xmlns="http://www.w3.org/2000/svg" version="1.1">
                    <defs> 
                        <linearGradient id="sw-gradient" x1="0" x2="1" y1="1" y2="0">
                            <stop id="stop1" stop-color="rgba(177, 147, 100, 0.5)" offset="0%"></stop>
                            <stop id="stop2" stop-color="rgba(177, 147, 100, 0.5)" offset="100%"></stop>
                        </linearGradient>
                    </defs>
                <path fill="url(#sw-gradient)" d="M16.1,-27.8C22,-24.5,28.7,-22.5,30.9,-18C33.2,-13.6,31.2,-6.8,31.2,0C31.2,6.8,33.3,13.6,32,19.7C30.7,25.9,25.9,31.3,20,34.6C14.1,37.9,7.1,39.1,-0.2,39.4C-7.4,39.7,-14.8,39,-19.3,34.9C-23.8,30.8,-25.4,23.2,-28,16.8C-30.7,10.4,-34.4,5.2,-33.7,0.4C-33,-4.4,-28,-8.9,-25.2,-15C-22.4,-21.1,-21.8,-28.9,-18,-33.4C-14.1,-37.8,-7.1,-38.9,-1,-37.2C5.1,-35.5,10.2,-31.1,16.1,-27.8Z" width="100%" height="100%" transform="translate(50 50)" stroke-width="0" style="transition: all 0.3s ease 0s;" stroke="url(#sw-gradient)"></path>
              </svg>