<!--?xml version="1.0" standalone="no"?-->
              <svg id="sw-js-blob-svg" viewBox="0 0 100 100" xmlns="http://www.w3.org/2000/svg" version="1.1">
                    <defs> 
                        <linearGradient id="sw-gradient" x1="0" x2="1" y1="1" y2="0">
                            <stop id="stop1" stop-color="rgba(177, 147, 100, 0.5)" offset="0%"></stop>
                            <stop id="stop2" stop-color="rgba(177, 147, 100, 0.5)" offset="100%"></stop>
                        </linearGradient>
                    </defs>
                <path fill="url(#sw-gradient)" d="M21.2,-37.9C27.4,-33.2,32.1,-27.2,32.1,-20.7C32.1,-14.2,27.4,-7.1,26.8,-0.3C26.2,6.4,29.7,12.8,29.5,19C29.3,25.2,25.4,31.2,19.9,32.2C14.3,33.2,7.2,29.1,1.5,26.5C-4.2,23.9,-8.3,22.8,-14.5,22.2C-20.7,21.6,-28.9,21.5,-34.7,17.9C-40.5,14.3,-43.9,7.1,-43.3,0.4C-42.6,-6.4,-37.9,-12.8,-33.5,-18.8C-29,-24.8,-24.9,-30.3,-19.4,-35.4C-13.8,-40.5,-6.9,-45,0.3,-45.5C7.5,-46.1,15.1,-42.6,21.2,-37.9Z" width="100%" height="100%" transform="translate(50 50)" stroke-width="0" style="transition: all 0.3s ease 0s;" stroke="url(#sw-gradient)"></path>
              </svg>