<?xml version="1.0" encoding="UTF-8"?>
<svg width="1200pt" height="1200pt" version="1.1" viewBox="0 0 1200 1200" xmlns="http://www.w3.org/2000/svg">
 <g>
  <path d="m963.96 723.36h-91.559c-1.9219-7.8008-9-13.68-17.398-13.68h-540c-9.9609 0-18 8.0391-18 18v213.84c0 119.28 97.078 216.48 216.48 216.48h143.16c100.2 0 184.44-68.52 209.04-161.16 46.68-2.0391 84-17.52 110.76-46.32 44.762-48.238 49.559-121.08 45.602-173.64-2.2812-30-27.719-53.52-57.961-53.52zm-90.961 237.12v-27.719c28.441-3.2383 50.52-14.398 65.52-33.602 32.16-41.039 17.641-102 17.039-104.64-2.0391-8.0391-9.2383-13.68-17.52-13.68h-65.039v-21.48h90.961c11.52 0 21.238 8.8789 22.078 20.16 2.7617 37.199 1.8008 105.72-36.121 146.52-18.48 19.801-44.281 31.441-76.922 34.441zm-359.52 161.52c-99.48 0-180.48-81-180.48-180.48v-195.84h504v195.84c0 99.48-81 180.48-180.48 180.48h-143.16zm359.52-225.48v-79.68h49.68c1.5586 15.961 1.5586 42.238-12.602 60.238-8.1602 10.32-20.52 16.801-37.078 19.441z"/>
  <path d="m491.4 540.72c4.8008 0 9.6016 0 14.398-0.35938 52.078 44.879 123.72 72.719 202.68 72.719 42.961 0 85.68-8.3984 123.96-24.359l109.8 61.199c2.7617 1.5586 5.7617 2.2812 8.7617 2.2812 3.9609 0 7.9219-1.3203 11.16-3.8398 5.7617-4.4414 8.1602-12 6.2383-18.961l-31.68-113.88c38.281-43.441 59.281-96.961 59.281-151.8 0-137.52-129-249.36-287.52-249.36-4.8008 0-9.6016 0-14.398 0.35938-52.078-44.879-123.72-72.719-202.8-72.719-158.52 0-287.52 111.84-287.52 249.36 0 54.84 21 108.36 59.281 151.8l-31.68 113.88c-1.9219 6.9609 0.48047 14.52 6.2383 18.961 3.2383 2.5195 7.1992 3.8398 11.16 3.8398 3 0 6-0.71875 8.7617-2.2812l109.8-61.199c38.281 15.961 81 24.359 123.96 24.359zm-133.68-60.121-79.922 44.52 22.801-81.961c1.6797-6.1211 0-12.719-4.3203-17.281-36.359-37.922-56.398-85.801-56.398-134.52 0-117.6 112.8-213.36 251.52-213.36 56.762 0 108.96 16.199 151.08 43.199-126.72 25.922-221.4 124.8-221.4 242.64 0 51.961 18.359 100.2 49.801 140.16-33.961-2.3984-67.199-10.441-96.961-24-5.1602-2.3984-11.16-2.1602-16.199 0.71875zm546 17.762c-4.4414 4.5586-6 11.16-4.3203 17.281l22.801 81.961-79.922-44.52c-2.7617-1.5586-5.7617-2.2812-8.7617-2.2812-2.5195 0-5.0391 0.48047-7.4414 1.5586-35.762 16.199-76.441 24.84-117.48 24.84-138.72 0-251.52-95.762-251.52-213.48s112.8-213.36 251.52-213.36 251.52 95.641 251.52 213.36c0 48.84-20.039 96.602-56.398 134.52z"/>
  <path d="m568.44 413.76c29.641 0 53.762-24.121 53.762-53.762s-24.121-53.762-53.762-53.762-53.762 24.121-53.762 53.762 24.121 53.762 53.762 53.762zm0-71.641c9.8398 0 17.762 8.0391 17.762 17.762 0 9.7188-8.0391 17.762-17.762 17.762-9.7188 0-17.762-8.0391-17.762-17.762 0-9.7188 8.0391-17.762 17.762-17.762z"/>
  <path d="m708.6 413.76c29.641 0 53.762-24.121 53.762-53.762s-24.121-53.762-53.762-53.762c-29.641 0-53.762 24.121-53.762 53.762s24.121 53.762 53.762 53.762zm0-71.641c9.8398 0 17.762 8.0391 17.762 17.762 0 9.7188-8.0391 17.762-17.762 17.762-9.7188 0-17.762-8.0391-17.762-17.762 0-9.7188 8.0391-17.762 17.762-17.762z"/>
  <path d="m848.64 306.24c-29.641 0-53.762 24.121-53.762 53.762s24.121 53.762 53.762 53.762 53.762-24.121 53.762-53.762-24.121-53.762-53.762-53.762zm0 71.641c-9.8398 0-17.762-8.0391-17.762-17.762 0-9.7188 8.0391-17.762 17.762-17.762 9.7188 0 17.762 8.0391 17.762 17.762 0 9.7188-8.0391 17.762-17.762 17.762z"/>
 </g>
</svg>
