<?xml version="1.0" encoding="UTF-8"?>
<svg width="1200pt" height="1200pt" version="1.1" viewBox="0 0 1200 1200" xmlns="http://www.w3.org/2000/svg" fill="#f5f5f5">
 <g>
  <path d="m955.08 129.48c-79.199-18-165.96-0.12109-244.32 50.16-46.922 30.238-87.961 71.039-110.88 108.24-22.801-37.078-63.961-78-110.88-108.24-78.238-50.398-165.12-68.16-244.32-50.16-71.398 16.199-130.2 61.801-165.72 128.52-49.801 93.48-49.922 215.4-0.35938 343.08 132.48 341.88 500.16 463.32 515.64 468.36 1.8008 0.60156 3.6016 0.83984 5.5195 0.83984 1.9219 0 3.7188-0.23828 5.5195-0.83984 15.602-5.0391 383.28-126.48 515.64-468.36 49.559-127.68 49.441-249.6-0.35938-343.08-35.52-66.719-94.32-112.32-165.72-128.52zm132.48 458.52c-117.6 303.48-441.36 428.64-487.68 445.2-46.32-16.559-369.96-141.72-487.68-445.2-45-116.04-45.48-230.28-1.4414-313.2 30.48-57.359 80.879-96.48 141.84-110.28 18.84-4.3203 37.199-6.1211 54.84-6.1211 66.121 0 122.88 26.398 162 51.48 62.52 40.199 106.44 95.762 112.68 126.12 1.6797 8.3984 9.1211 14.398 17.641 14.398 8.5195 0 15.84-6 17.641-14.398 6.2383-30.359 50.16-85.922 112.68-126.12 49.559-31.922 127.44-65.641 216.84-45.359 60.961 13.801 111.36 53.039 141.84 110.28 44.16 82.922 43.559 197.04-1.4414 313.2z"/>
  <path d="m860.28 637.08h-67.441v-7.9219c0-9.9609-8.0391-18-18-18h-369.84c-9.9609 0-18 8.0391-18 18v97.441c0 111.96 91.078 202.92 202.92 202.92 75.961 0 142.08-42 176.88-103.8 3.4805 0.23828 6.9609 0.35938 10.32 0.35938 32.16 0 57.602-10.078 75.961-30 45.359-49.441 25.68-141 24.719-144.96-1.8008-8.2812-9.1211-14.039-17.52-14.039zm-270.36 256.56c-92.039 0-166.92-74.879-166.92-166.92v-79.441h333.84v79.441c0 92.039-74.879 166.92-166.92 166.92zm202.92-166.92v-53.52h52.199c3.4805 27.359 4.0781 74.039-18.602 98.641-10.078 11.039-25.078 16.922-43.801 17.879 6.4805-19.922 10.199-41.039 10.199-63z"/>
  <path d="m475.68 528.36c3.9609 3.2383 10.68 9.7188 10.32 15.121-0.35938 5.7617-7.9219 12.602-11.16 14.641-8.3984 5.2812-11.039 16.32-5.7617 24.84 3.3594 5.5195 9.2383 8.5195 15.238 8.5195 3.2383 0 6.4805-0.83984 9.4805-2.7617 2.6406-1.6797 26.281-17.039 27.961-42.719 0.71875-11.281-2.6406-28.32-23.281-45.359-6.6016-5.5195-10.32-10.801-9.9609-14.281 0.48047-5.1602 8.5195-12 14.039-14.879 8.7617-4.5586 12.121-15.48 7.5586-24.238-4.5586-8.7617-15.48-12.238-24.238-7.6797-3.1211 1.5586-30.359 16.441-33.238 42.961-1.1992 11.281 1.8008 28.441 22.801 45.84z"/>
  <path d="m565.8 504.36c3.9609 3.2383 10.559 9.6016 10.32 15.121-0.35938 5.7617-7.9219 12.602-11.16 14.641-8.3984 5.2812-11.039 16.32-5.7617 24.84 3.3594 5.5195 9.2383 8.5195 15.238 8.5195 3.2383 0 6.4805-0.83984 9.4805-2.7617 2.6406-1.6797 26.281-17.039 27.961-42.719 0.71875-11.281-2.6406-28.32-23.281-45.359-6.6016-5.5195-10.32-10.801-9.9609-14.281 0.48047-5.1602 8.5195-12 14.039-14.879 8.7617-4.5586 12.121-15.48 7.5586-24.238-4.5586-8.7617-15.48-12.238-24.238-7.6797-3.1211 1.5586-30.359 16.441-33.238 42.961-1.1992 11.281 1.8008 28.441 22.801 45.84z"/>
  <path d="m655.92 528.36c3.9609 3.2383 10.68 9.7188 10.32 15.121-0.35938 5.7617-7.9219 12.602-11.16 14.641-8.3984 5.2812-11.039 16.32-5.7617 24.84 3.3594 5.5195 9.2383 8.5195 15.238 8.5195 3.2383 0 6.4805-0.83984 9.4805-2.7617 2.6406-1.6797 26.281-17.039 27.961-42.719 0.71875-11.281-2.6406-28.32-23.281-45.359-6.6016-5.5195-10.32-10.801-9.9609-14.281 0.48047-5.1602 8.5195-12 14.039-14.879 8.7617-4.5586 12.121-15.48 7.5586-24.238-4.5586-8.7617-15.359-12.238-24.238-7.6797-3.1211 1.5586-30.359 16.441-33.238 42.961-1.1992 11.281 1.8008 28.441 22.801 45.84z"/>
 </g>
</svg>
