<?xml version="1.0" encoding="UTF-8"?>
<svg width="1200pt" height="1200pt" version="1.1" viewBox="0 0 1200 1200" xmlns="http://www.w3.org/2000/svg" fill="rgba(212, 195, 172, 1)">
 <path d="m240.24 922.44c69.238 61.801 147 94.199 223.92 94.199 10.801 0 21.48-0.71875 32.16-1.9219 45.48 67.559 108.24 115.2 183.48 131.64h0.48047s0.35938 0.23828 0.48047 0.23828c18.602 3.9609 37.199 5.8789 55.801 5.8789 176.28 0 348.36-172.08 399.6-412.32 56.641-265.56-55.559-515.4-250.08-556.8-73.32-15.602-147.96 0.60156-215.52 41.039-92.168-131.39-227.41-204.36-357.85-176.39h-0.48047c-0.35938 0-0.60156 0-0.96094 0.12109-194.28 42.84-304.92 293.4-246.72 558.6 27.961 127.44 90.359 239.52 175.68 315.72zm400.68-678.6c-71.398 51.84-132.84 131.16-173.52 228.36-126-153.48-134.88-339.84-134.64-391.32 12.121-1.9219 24.359-2.8789 36.48-2.8789 100.2 0 199.56 63.359 271.68 165.84zm460.2 488.64c-47.641 223.32-204.36 383.88-363.84 383.88-0.83984 0-1.6797 0-2.3984-0.12109 74.281-57.84 214.32-204.6 130.2-443.64-72.719-206.76 4.4414-400.8 27.238-450.84 166.56 46.078 259.92 270.96 208.8 510.72zm-377.28-37.559c-49.32-154.44 36-309.6 102.96-400.56-27.359 92.16-49.801 236.4 4.3203 390.12 64.441 183.36-12.719 305.04-79.441 370.56 21.961-67.32 29.762-179.64-27.84-360.12zm-34.32 10.922c89.762 281.16 12.238 381.72-9.4805 403.2-169.8-42.84-265.68-269.88-213.96-512.04 47.641-223.32 204.36-383.88 363.84-383.88 5.0391 0 10.199 0.48047 15.238 0.83984-64.199 71.398-224.04 277.56-155.52 491.88zm-386.52-531.61c12.602 90.719 48.84 222.48 149.76 336.48-8.7617 25.32-16.199 51.719-22.078 78.961-3.3594 15.961-6.1211 31.922-8.3984 47.641-14.281-18-30-36.602-47.398-55.922-108.84-120.24-95.281-296.88-71.879-407.28zm-16.441-81.121c-28.801 91.32-89.52 345.48 61.68 512.52 27 29.879 49.801 57.961 69 84.238-6.3594 108.72 15.359 210.12 58.32 290.28-71.762 3.3594-145.44-25.801-211.32-84.602-79.68-71.16-138-176.52-164.4-296.64-50.641-230.15 32.398-447.59 186.72-505.91z"/>
</svg>
