<?xml version="1.0" encoding="UTF-8"?>
<svg width="1200pt" height="1200pt" version="1.1" viewBox="0 0 1200 1200" xmlns="http://www.w3.org/2000/svg" fill="#f5f5f5">
 <g>
  <path d="m740.64 754.08c-39 5.5195-84.719 2.3984-135.84-9.4805-0.35938 0-0.83984-0.12109-1.1992-0.23828-0.83984-8.6406-3.8398-16.801-9.1211-24l-27.961-37.68c-7.8008-10.441-19.199-17.281-32.039-19.199-12.84-1.9219-25.801 1.3203-36.238 9l-37.68 27.961c-10.441 7.8008-17.281 19.199-19.199 32.039-1.3203 9.1211 0 18.238 3.6016 26.52-3.9609 3.6016-6.2383 8.8789-5.8789 14.398l20.281 302.04c0.60156 9.4805 8.5195 16.801 18 16.801h245.76c9.4805 0 17.281-7.3203 18-16.801l20.281-302.4c0.35938-5.3984-1.8008-10.68-5.7617-14.398-3.9609-3.7188-9.3594-5.3984-14.762-4.6797zm-246.72 302.16-16.922-251.28 1.0781 1.4414c7.8008 10.441 19.078 17.281 32.039 19.199 2.3984 0.35938 4.9219 0.60156 7.3203 0.60156 10.441 0 20.52-3.3594 28.922-9.6016l37.68-27.961c3.7188-2.7617 6.7188-6.1211 9.4805-9.6016 0.96094 0.23828 1.9219 0.35938 3 0.60156 46.441 10.68 89.039 14.762 127.08 12.238l-17.762 264.24h-212.16zm-12.121-326.88 37.68-27.961c2.2812-1.6797 4.9219-2.5195 7.6797-2.5195 0.60156 0 1.3203 0 1.9219 0.12109 3.3594 0.48047 6.3594 2.2812 8.3984 5.0391l27.961 37.68c4.1992 5.7617 3 13.801-2.6406 18l-37.68 27.961c-5.7617 4.1992-13.801 3-18-2.6406l-27.961-37.68c-4.1992-5.7617-3-13.801 2.6406-18z"/>
  <path d="m885.48 462.84c0-20.039-16.32-36.359-36.359-36.359h-5.5195c-6.4805-86.879-59.641-165.12-138.96-202.8-2.3984-1.1992-5.0391-1.6797-7.6797-1.6797h-46.922l4.3203-21.84 102.96-69.48c7.9219-5.2812 10.32-15.84 5.3984-24.121l-33-55.801c-2.5195-4.3203-6.8398-7.4414-11.762-8.3984-4.9219-1.0781-10.078 0-14.16 2.8789l-143.16 101.16c-3.7188 2.6406-6.2383 6.4805-7.1992 10.922l-13.68 64.559h-36.84c-2.6406 0-5.2812 0.60156-7.6797 1.6797-79.32 37.559-132.48 115.92-138.96 202.8h-5.5195c-20.039 0-36.359 16.32-36.359 36.359v70.32c0 20.039 16.32 36.359 36.359 36.359h6.1211l44.039 571.92c0.71875 9.3594 8.5195 16.559 18 16.559h362.16c9.3594 0 17.281-7.1992 18-16.559l44.039-571.92h6.1211c20.039 0 36.359-16.32 36.359-36.359v-70.32zm-36 70.32s-0.12109 0.35938-0.35938 0.35938l-498.72-0.35938 0.35938-70.68 498.72 0.35938zm-413.88 588.84-42.48-552.48h413.76l-42.48 552.48zm273.12-1036.1 14.398 24.359-95.039 64.199c-3.9609 2.6406-6.7188 6.7188-7.5586 11.398l-7.0781 36h-36.84l10.68-50.281 121.44-85.801zm-102.36 172.08-33.121 168.48h-39.961l35.641-168.48zm86.52 0c64.922 32.281 108.36 96.84 114.6 168.48h-197.64l33.121-168.48zm-185.76 0h25.078l-35.641 168.48h-103.92c6.3594-71.641 49.68-136.2 114.6-168.48z"/>
  <path d="m667.8 885.24-57.238-17.641c-14.762-4.5586-30.48 3.7188-35.16 18.602l-17.641 57.238c-4.5586 14.762 3.7188 30.602 18.602 35.16l57.238 17.641c2.7617 0.83984 5.5195 1.3203 8.2812 1.3203 4.5586 0 9-1.0781 13.078-3.2383 6.6016-3.4805 11.52-9.3594 13.68-16.559l17.641-57.238c2.2812-7.1992 1.5586-14.762-2.0391-21.359-3.4805-6.6016-9.3594-11.52-16.559-13.68zm-73.32 61.199 12.961-42.121 42.121 12.961-12.961 42.121z"/>
  <path d="m624.96 669.48c-5.1602 16.559 4.1992 34.199 20.762 39.359l45.84 14.16c3.1211 0.96094 6.2383 1.4414 9.2383 1.4414 13.441 0 25.922-8.6406 30.121-22.199l14.16-45.84c5.1602-16.559-4.1992-34.199-20.762-39.359l-45.84-14.16c-16.441-5.1602-34.199 4.1992-39.359 20.762l-14.16 45.84zm72.961 17.762-37.199-11.52 11.52-37.199 37.199 11.52z"/>
 </g>
</svg>
