<?xml version="1.0" encoding="UTF-8"?>
<svg width="1200pt" height="1200pt" version="1.1" viewBox="0 0 1200 1200" xmlns="http://www.w3.org/2000/svg" fill="#f5f5f5">
 <g>
  <path d="m365.16 370.2-4.3203 45.602h-42.359c-8.3984 0-15.719 5.7617-17.52 13.922l-24.961 108.6c-1.1992 5.3984 0 10.922 3.4805 15.238 3.3594 4.3203 8.6406 6.8398 14.039 6.8398h46.32l53.398 581.16c0.83984 9.2383 8.6406 16.32 17.879 16.32h375.6c9.3594 0 17.039-7.0781 17.879-16.32l53.398-581.16h48.719c5.5195 0 10.68-2.5195 14.039-6.8398s4.6797-9.9609 3.4805-15.238l-24.961-108.6c-1.9219-8.1602-9.1211-13.922-17.52-13.922h-42.359l-7.9219-83.039c-0.96094-9.8398-9.6016-17.16-19.441-16.199l-430.2 37.32c-8.6406 0.71875-15.48 7.5586-16.32 16.199zm34.441 18.359 397.56-34.441 5.8789 61.801-406.08 0.003906 2.6406-27.238zm27.84 733.44-12.238-132.96h367.2l-12.238 132.96zm358.32-168.96h-373.8l-23.398-255.12h420.72l-23.398 255.12zm26.762-291.12-427.32 0.003906-9.3594-101.52h445.92l-9.3594 101.52zm29.039-137.52h-525.48l16.68-72.602h534.48l16.68 72.602h-42.48z"/>
  <path d="m683.28 832.92c0-57-36.238-103.44-81.121-104.88h-0.60156-1.4414-1.0781-0.83984c-45 1.1992-81.48 47.762-81.48 104.88 0 57.121 37.32 105 83.281 105s83.281-47.16 83.281-105zm-97.199 11.281c21.719 26.879 13.441 47.039 6.6016 56.762-22.32-5.2812-39.961-34.32-39.961-68.039 0-21.238 6.9609-40.559 17.641-53.398-2.8789 20.039-1.0781 44.039 15.602 64.68zm27.961-22.68c-13.922-17.281-8.2812-41.641-3.1211-55.68 20.641 7.4414 36.48 35.039 36.48 67.078 0 16.559-4.3203 32.039-11.281 44.039-0.23828-16.68-6-35.641-22.078-55.441z"/>
  <path d="m485.16 129.24c4.1992-9 10.559-15 13.078-17.039 7.6797-6.2383 8.7617-17.52 2.5195-25.199-6.2383-7.6797-17.641-8.8789-25.32-2.6406-21.359 17.281-51 63.961-10.078 116.88 28.199 36.48 1.9219 64.922-1.0781 67.922-7.0781 6.9609-7.3203 18.359-0.35938 25.441 3.4805 3.6016 8.1602 5.3984 12.961 5.3984 4.8008 0 9-1.6797 12.602-5.0391 18.602-18 43.32-65.52 4.4414-115.8-5.1602-6.7188-8.5195-13.078-10.441-18.961-4.0781-12.359-2.0391-22.801 1.6797-30.84z"/>
  <path d="m592.44 87.961c5.3984-8.2812 12-13.559 12.359-13.801 7.9219-5.8789 9.7188-17.039 3.8398-25.078-5.8789-8.0391-17.16-9.8398-25.199-3.9609-3 2.1602-29.398 22.32-33.238 55.559-2.5195 21.48 5.0391 42.602 22.199 62.641 8.5195 9.9609 12.48 19.078 13.68 27.359 0.96094 6.3594 0.48047 12.121-1.0781 17.16-3.3594 11.641-11.281 19.559-14.039 22.078-7.4414 6.6016-8.2812 17.879-1.6797 25.441 3.6016 4.0781 8.5195 6.1211 13.559 6.1211 4.1992 0 8.3984-1.4414 11.879-4.4414 16.801-14.641 50.281-64.32 4.9219-117.12-4.3203-4.9219-7.3203-9.8398-9.6016-14.641-3.3594-6.8398-4.9219-13.68-4.1992-20.16 0.71875-6.4805 3.3594-12.238 6.3594-17.039z"/>
  <path d="m698.28 129.24c4.1992-9 10.559-15 13.078-17.039 7.6797-6.2383 8.7617-17.52 2.5195-25.199-6.2383-7.6797-17.641-8.8789-25.32-2.6406-21.359 17.281-51 63.961-10.078 116.88 28.199 36.48 1.9219 64.922-1.0781 67.922-7.0781 6.9609-7.3203 18.359-0.35938 25.441 3.4805 3.6016 8.1602 5.3984 12.961 5.3984 4.8008 0 9-1.6797 12.602-5.0391 18.602-18 43.32-65.52 4.4414-115.8-5.1602-6.7188-8.5195-13.078-10.441-18.961-4.0781-12.359-2.0391-22.801 1.6797-30.84z"/>
 </g>
</svg>
