<?xml version="1.0" encoding="UTF-8"?>
<svg width="1200pt" height="1200pt" version="1.1" viewBox="0 0 1200 1200" xmlns="http://www.w3.org/2000/svg">
 <path d="m600 34.285c-217.54 0-394.63 176.92-394.63 394.63 0 211.71 365.31 708.69 380.91 729.77 3.0859 4.2852 8.2305 7.0273 13.715 7.0273s10.629-2.7422 13.715-7.0273c15.602-21.086 380.91-518.05 380.91-729.77 0-217.71-177.09-394.63-394.63-394.63zm0 640.97c-135.94 0-246.52-110.57-246.52-246.34 0-135.94 110.57-246.51 246.52-246.51 135.94 0 246.52 110.57 246.52 246.51 0 135.77-110.57 246.34-246.52 246.34z"/>
</svg>
