<?xml version="1.0" encoding="UTF-8"?>
<svg width="1200pt" height="1200pt" version="1.1" viewBox="0 0 1200 1200" xmlns="http://www.w3.org/2000/svg" fill="#f5f5f5">
 <g>
  <path d="m1165.2 632.76c-2.7617-39.719-37.32-74.398-53.281-88.32h0.003906c11.645-0.66797 22.633-5.625 30.84-13.922 15.238-15.961 17.281-41.52 6.2383-77.641v-80.039c0.18359-1.4336 0.18359-2.8867 0-4.3203v-1.0781c-0.35547-1.2109-0.83984-2.375-1.4414-3.4805-0.03125-0.23828-0.03125-0.48047 0-0.72266-0.78516-1.2227-1.7109-2.3477-2.7578-3.3594h-0.72266c-0.96094-0.82422-2.0039-1.5508-3.1172-2.1602-7.6797-3.7188-572.52-278.64-1050.7-187.8h-0.83984c-1.2461 0.29297-2.457 0.73438-3.5977 1.3164h-0.60156c-1.1133 0.60938-2.1562 1.3359-3.1211 2.1602-1.0156 1.0078-1.9023 2.1367-2.6367 3.3633v0.96094-0.003906c-0.51172 1.0508-0.95312 2.1328-1.3203 3.2422v0.96094c-0.17578 1.4336-0.17578 2.8828 0 4.3164v161.76c-25.609 44.363-28.637 98.246-8.1602 145.2-17.012 11.805-27.355 31.023-27.84 51.723 0.96094 18.238 12 34.32 33.48 48.719v61.199c-0.0625 1.0391-0.0625 2.082 0 3.1211 2.0391 11.281 51.359 278.76 258.36 394.56 0.52734 0.3125 1.0898 0.55469 1.6797 0.71875h1.4414-0.003906c1.8203 0.62109 3.7227 0.94531 5.6406 0.96094h2.6406c18-2.7617 392.28-60 679.44-197.52l41.52 12c1.6367 0.47656 3.3359 0.71875 5.0391 0.71875 4.7148 0.066406 9.2656-1.7188 12.676-4.9727 3.4102-3.2539 5.4062-7.7148 5.5664-12.426v-28.078c17.52-9.6016 34.52-19.559 51-29.879v-0.003907c5.1953-3.2773 8.3633-8.9766 8.3984-15.117v-96.844c11.547-13.738 17.352-31.406 16.199-49.316zm-48-127.08c-3.9609 4.0781-14.398 3.2383-18.48 2.1602v-0.003906c-1.2344-0.11328-2.4805-0.11328-3.7188 0l-1.4414-8.6406c8.8789-4.9219 17.641-9.9609 26.16-15 1.8125 7.2812 0.73828 14.977-3 21.48zm-57.121 11.039 11.039 69.238-190.56 9.2383c61.145-22.684 120.93-48.887 179.04-78.48zm53.398-71.281c-250.08 153.72-654.36 234.6-751.56 252l1.5586-65.762c77.762-16.68 463.2-102.96 750-231.24zm-786.36 181.2-1.4414 61.078c-162.84-108.96-209.88-317.04-214.08-337.08v-49.922c50.039 119.28 140.4 270.48 215.52 325.92zm37.559 181.92c5.2812 34.199 36 63.48 81.602 81.719-47.398 10.199-78.602 14.16-92.281 12.719-18.121-17.52-38.16-37.922-58.441-60 20.246-9.5117 38.711-22.418 54.602-38.16 3.9609 1.1992 8.8789 2.5195 14.52 3.7188zm194.52 65.879c-80.039 0-139.32-29.281-155.16-60 42.961 2.8789 98.281-5.0391 137.52-52.559 25.199 3.9609 85.68 9.8398 132.84-15 27.961 14.52 44.16 33.48 44.16 51.48 0 35.875-65.398 76.078-159.36 76.078zm270.72-186.6c27.238 14.52 43.199 33.238 43.199 50.879 0 30.84-48 64.559-120 73.801 1.043-4.7305 1.6055-9.5547 1.6797-14.398 0-29.281-18.602-55.441-49.32-75.238v-0.003906c4.4766-4.7695 8.4961-9.9531 12-15.48 38.027-2.8281 75.688-9.3789 112.44-19.559zm77.52 64.922c1.043-4.6094 1.6094-9.3164 1.6797-14.043-1.5547-26.902-15.523-51.555-37.801-66.719 19.41-8.1289 35.105-23.184 44.039-42.238l176.64-8.7617c5.1367-0.22656 9.9375-2.625 13.199-6.6016 3.3594-3.9961 4.8828-9.2227 4.1992-14.398l-1.1992-7.9219c11.09 11.98 18.395 26.969 21 43.082 0.69922 10.328-3.3672 20.41-11.039 27.359-13.199 13.559-90.84 47.52-210.72 90.242zm180-380.04c-291.12 128.16-679.44 213.12-738.24 225.48-87.359-63.121-206.04-286.92-234-396 394.2-66.961 844.8 114 972.36 170.52zm-985.2 141.96c4.1914-2.293 7.332-6.1211 8.7617-10.68 1.207-4.8047 0.47656-9.8906-2.0391-14.16-14.047-22.207-20.137-48.52-17.281-74.641 27.238 84 94.559 237.12 242.52 319.92l1.6797 0.60156 1.4414 0.71875c1.8164 0.61719 3.7188 0.94141 5.6406 0.95703h2.8789c139.45-24.484 277.18-57.957 412.32-100.2l110.76-5.3984c-30.238 21.719-105.6 36.719-163.68 40.32h-0.003907c-3.1523 0.19531-6.1992 1.2188-8.832 2.9688s-4.7617 4.1602-6.168 6.9883c-33.961 67.801-151.08 42.602-152.28 42.359l0.003907 0.003906c-3.4531-0.79688-7.0664-0.55078-10.379 0.71094-3.3086 1.2617-6.1719 3.4766-8.2227 6.3672-54.121 76.441-163.2 37.801-168 36-3.2031-1.1758-6.6758-1.418-10.012-0.69531-3.3359 0.72266-6.3984 2.3789-8.8281 4.7773-45.359 44.762-65.641 43.199-72 40.441-17.281-7.1992-23.039-47.281-23.039-65.52v-0.003907c0-4.7734-1.8984-9.3516-5.2734-12.727s-7.9531-5.2734-12.727-5.2734c-51.121 0.83984-75.121-96-80.281-134.16-0.94141-6.3672-5.1875-11.758-11.16-14.16-45.121-18.359-49.441-33.238-49.68-37.32-0.96094-10.68 16.082-23.879 23.879-28.199zm9.3633 133.32c2.5195 6.7188 5.5195 13.801 8.8789 20.879 8.9219 28.297 24.473 54.051 45.359 75.121 13.922 19.441 29.039 38.879 44.398 57.48 5.1992 19.246 18.27 35.41 36 44.52h1.9219c22.199 31.211 48.656 59.16 78.602 83.039l-1.5586 76.078c-162.72-110.52-209.64-331.92-213.6-351.96zm252 291.24c34.32-0.71875 93.121-12 163.56-30.121 10.559 0.96094 21.48 1.6797 32.641 1.6797 76.32 0 141.12-24 173.4-60v0.003906c47.281-1.0469 93.363-15.078 133.2-40.562l105.6 31.203c-240 105.72-530.88 160.44-610.8 174.12zm553.08-151.8c51.961-18.602 99-36.719 136.92-52.801v93.359zm172.92-68.641c8.6406-3.9609 16.441-7.8008 24-11.281v61.32c-7.6797 4.6797-15.48 9.3594-24 13.922z"/>
  <path d="m472.92 471.6c0-29.879-29.398-54.238-65.52-54.238s-65.398 24-65.398 54.238c-0.003906 30.238 29.996 54.359 65.996 54.359s64.922-24.359 64.922-54.359zm-94.922 0c0-8.6406 12-18.238 29.398-18.238 17.398 0 29.52 9.6016 29.52 18.238 0 8.6406-12 18.359-29.52 18.359-17.52 0-29.398-9.9609-29.398-18.359z"/>
  <path d="m583.68 354.84c-36 0-65.398 24-65.398 54.359s29.281 54.359 65.398 54.359c36.121 0 65.398-24 65.398-54.359s-29.398-54.359-65.398-54.359zm-29.398 54.359c0-8.6406 12-18.359 29.398-18.359 17.398 0 29.398 9.7188 29.398 18.359s-12 18.359-29.398 18.359c-17.398 0-29.398-9.7188-29.398-18.359z"/>
  <path d="m342 331.8c0 30 29.398 54.359 65.398 54.359s65.52-24 65.52-54.359c0.003906-30.359-28.918-54.359-64.918-54.359s-66 24.48-66 54.359zm94.922 0c0 8.6406-12 18.359-29.52 18.359-17.52 0-29.398-9.7188-29.398-18.359s12-18.359 29.398-18.359c17.398 0 29.52 9.7188 29.52 18.359z"/>
 </g>
</svg>
