<?xml version="1.0" encoding="UTF-8"?>
<svg width="1200pt" height="1200pt" version="1.1" viewBox="0 0 1200 1200" xmlns="http://www.w3.org/2000/svg" fill="#f5f5f5">
 <g>
  <path d="m1007 508.32v-65.762c0.125-1.1562 0.125-2.3203 0-3.4805v-1.1992c-0.51562-1.7383-1.418-3.3398-2.6406-4.6797-0.26563-0.30469-0.58984-0.55078-0.95703-0.71875-0.86719-0.95703-1.8789-1.7656-3-2.4023l-1.8008-0.83984c-0.49609-0.28906-1.0195-0.52734-1.5625-0.71875l-107.28-30.84 0.003906-89.52c0-87.84-152.4-156.72-347.04-156.72s-347.88 68.879-347.88 156.72v200.16c-92.879 57.602-149.88 134.76-149.88 219.48 0 177.48 249.36 321.84 555.96 321.84 306.6 0 555.84-144 555.84-321.84 0-84.723-57-161.88-149.76-219.48zm-245.64 228v-90.719c41.281-4.1992 154.44-18.121 216-48v93.121c-42.117 28.199-157.56 41.277-216 45.719zm216-12v79.922c-8.0391 9.6016-50.641 48.961-216 51.238v-88.922c41.883-2.7578 154.56-12.719 215.64-41.758zm-216-109.32v-97.199c41.281-4.1992 154.44-18.121 216-48v93.121c-42.117 28.68-157.2 46.199-216 52.559zm192-168c-53.398 22.801-150.48 36.602-198.6 41.398l-65.039-116.4zm-367.2 112.8v-91.801l57.719 14.281v91.199zm57.719 45.121 0.003906 91.078-57.719-14.16-0.003906-91.199zm-60-168-22.441-108 82.32 24v98.52zm-12 394.08h0.003906c3.8516-0.18359 7.4844-1.8477 10.141-4.6406 2.6602-2.793 4.1406-6.5039 4.1367-10.359v-103.2l57.719 14.281v10.801l0.003906-0.003906c-0.015625 2.9141 0.86719 5.7617 2.5195 8.1602l87.48 133.08v0.003906c0.45703 0.64844 0.98047 1.2539 1.5586 1.8008l0.60156 0.71875h-0.003906c1.1719 1.1719 2.5586 2.1094 4.082 2.7578h1.0781c1.3398 0.53125 2.7617 0.81641 4.2031 0.83984-47.441 9.2539-95.668 13.875-144 13.801-194.64 0.96094-359.88-71.039-375.36-158.04 54.238 54 173.76 90.719 315.72 90.719 10.203 0 20.164-0.23828 30.004-0.59766zm160.08-195v66l-58.078-86.398v-68.523zm-58.078-144v-87.238l58.078 103.32v72.961zm58.078 264.84v64.078l-57.48-87.48v-63.477zm114.6-372c1.8008-1.5586 3.7188-3 5.3984-4.5586s5.0391-4.6797 7.4414-6.9609v15.121zm-304.2-204c189.6 0 317.04 65.52 317.04 126.72-1.5234 19.832-11.488 38.055-27.363 50.043-2.8789 2.5195-6.1211 5.1602-9.4805 7.6797l-3.3594 2.3984-4.4414 3-268.8-76.918c-5.0625-1.4648-10.523-0.16406-14.379 3.4219-3.8594 3.5898-5.5547 8.9414-4.4609 14.098l25.68 123.48h-13.68c-13.078 0-26.16 0-39-1.1992h-3.4805c-13.078-0.83984-26.16-1.9219-39-3.3594h-3.2383c-12.84-1.5586-25.441-3.3594-37.801-5.5195h-2.3984c-12.602-2.2812-24.961-4.9219-36.84-7.9219-6.7188-1.6797-13.441-3.4805-19.922-5.3984v-0.003906c-38.5-10.125-74.438-28.238-105.48-53.16-10.266-8.3945-18.473-19.027-24-31.078-2.5547-5.9961-3.8594-12.445-3.8398-18.961 0.71875-61.199 128.04-126.72 317.64-126.72zm-316.92 192c2.2812 2.3984 4.6797 4.8008 7.3203 7.0781 30.48 27.238 78.121 49.441 137.88 64.441 60.895 14.785 123.48 21.484 186.12 19.922v92.039h-54l-10.32-0.60156-12-0.83984-10.922-0.96094-10.559-1.0781-12-1.4414-9.3594-1.1992-12.961-2.0391-7.9219-1.3203-14.281-2.7617-6.1211-1.1992-19.801-4.5586h-0.71875c-6.7188-1.6797-13.32-3.4805-19.68-5.3984h0.003906c-38.023-10.207-73.496-28.23-104.16-52.922-15.871-11.984-25.836-30.207-27.359-50.039zm0 122.28c2.2812 2.3984 4.8008 4.8008 7.3203 7.0781 30.602 27.238 78.359 49.559 137.76 64.441h0.83984-0.003906c60.695 14.512 123.02 21.086 185.4 19.559v92.281h-14.402c-55.504 0.50391-110.86-5.6992-164.88-18.48-53.52-13.078-98.641-33.602-125.52-57.359-15.656-12.117-25.57-30.203-27.359-49.922zm0 122.28c2.2812 2.3984 4.8008 4.6797 7.4414 7.0781 30.602 27.238 78.359 49.559 138 64.441 56.137 13.574 113.72 20.266 171.48 19.918h14.398l0.003906 92.762h-14.398c-189.6 0-316.92-65.52-316.92-126.72zm375.48 402.6c-290.04 0-525.96-131.28-525.96-292.2 0-70.32 45-134.76 120-185.28v132c0.023438 8.1602 1.3594 16.266 3.9609 24-2.6328 9.293-3.9648 18.902-3.9609 28.559 0 113.16 178.32 201.84 406.08 201.84 108 0 205.56-20.16 277.68-53.398 104.52-18.121 124.68-55.441 127.08-60.961h0.003906c0.84766-1.8867 1.2969-3.9297 1.3203-6v-266.04c74.762 50.52 120 114.96 120 185.28-0.35938 160.92-236.28 292.2-526.2 292.2z"/>
  <path d="m355.68 366.24c1.2383 0.125 2.4844 0.125 3.7188 0 3.3203-0.042969 6.5352-1.1641 9.1523-3.2031 2.6211-2.0352 4.5078-4.8711 5.3711-8.0742 0.97656-3.8672 0.375-7.9648-1.6719-11.391-2.0508-3.4219-5.3789-5.8867-9.25-6.8516-27.238-6.9609-33.48-15.719-34.801-18.238-0.60547-1.293-0.60547-2.7891 0-4.082 2.4883-4.7578 2.2461-10.48-0.63281-15.016-2.875-4.5312-7.9531-7.1836-13.32-6.957-5.3633 0.22656-10.199 3.2969-12.688 8.0547-4.9805 9.2617-5.5508 20.27-1.5586 30 7.4414 16.199 26.039 28.199 55.68 35.758z"/>
  <path d="m634.68 264s26.039-6.2383 38.039 12c3.0898 4.1367 8.0859 6.3945 13.23 5.9766 5.1445-0.41406 9.7148-3.4453 12.098-8.0234s2.2422-10.062-0.36719-14.512c-24-36-68.281-24.719-70.199-24-4.8438 1.5859-8.5508 5.5234-9.8438 10.453-1.293 4.9336 0.011719 10.184 3.457 13.938 3.4453 3.7578 8.5625 5.5078 13.586 4.6484z"/>
  <path d="m451.68 253.32c3.3594-2.7617 20.52-15.84 32.52-1.6797 2.8438 3.3438 7.0117 5.2734 11.402 5.2812 3.5664 0.011719 7.0195-1.2656 9.7188-3.6016 3.0352-2.5625 4.9297-6.2266 5.2695-10.188 0.33594-3.9609-0.91016-7.8906-3.4688-10.934-23.762-28.199-57.723-16.199-75.121-1.8008-4.0938 3.4727-6.0234 8.8672-5.0664 14.148 0.96094 5.2812 4.668 9.6523 9.7227 11.461 5.0547 1.8086 10.691 0.78516 14.785-2.6875z"/>
  <path d="m448.92 327.12c-3.8008 1.0156-7.0508 3.4844-9.0508 6.875-1.9961 3.3867-2.582 7.4258-1.6328 11.242 0.99609 3.8086 3.4258 7.0859 6.7812 9.1445 3.3555 2.0586 7.375 2.7383 11.219 1.8984 3.1016-0.98828 6.4805-0.55469 9.2344 1.1797 2.75 1.7344 4.5977 4.5977 5.0469 7.8203 0.94922 3.082 2.8555 5.7812 5.4453 7.7031 2.5938 1.9219 5.7305 2.9648 8.957 2.9766 1.4297 0.23047 2.8867 0.23047 4.3164 0 3.8086-1.168 7-3.7852 8.8867-7.2891s2.3164-7.6133 1.1953-11.434c-2.5742-10.746-9.3711-20-18.859-25.668-9.4844-5.6719-20.855-7.2734-31.539-4.4492z"/>
 </g>
</svg>
